<svg xmlns="http://www.w3.org/2000/svg" xmlns:xlink="http://www.w3.org/1999/xlink" width="100%" height="100%" viewBox="0 0 512 261" preserveAspectRatio="xMidYMid meet" ><g style="fill:rgb(5,5,4);fill-rule:evenodd;stroke:rgb(5,5,4);stroke-width:0.1;" id="l1"><path d="M0,0h512v261h-512zm267,113v1h-3v1l-4,2h-2v1l-1,1h-2v1l-2,2h-2v1l-3,3h3v-1l2-2h2v-1l2-2h2v-1l1-1l4-2h2v-1zm203,82v1l-1,2l1-3l1-1h1v-2l1-2l-1,2l-1,1h-1z"/><path d="M164,25h1v41h-1zm0,46h1v41h-1zm0,45h1v41h-1z"/><path d="M164,162h1v41h-1z"/></g><g style="fill:rgb(129,62,14);fill-rule:evenodd;stroke:rgb(129,62,14);stroke-width:0.1;" id="l2"><path d="M235,11h1v1l-5,5l-5,5c-1,0-1,1,44,1v-1l1-1h1v1l-1,1h-1v2h-46v-1l1-1h-2v-1l5-5c2,0,2-1,7-6zm-157,1h1v1l-5,5l-5,5c-1,0-1,1,43,1v-1l2-2h2v1l-2,2h-1v2h-46v-1l1-1h-2v-1l2-2l2-2c2,0,2-1,8-7z"/><path d="M131,12h44v2l-10,10h-1v-1l7-7l2-2c1,0,1-1-41-1v1l-10,10h-2v-1l4-4h2v-2zm-61,2h1l1,1v2h-1v-2l-10,10h-1v-2l8-8z"/><path d="M228,14h1v1l-5,5l-5,5h-1v-2l7-7c2,0,2-1,3-2zm-213,10h44v40h-1c0-38-44-37-45-37v-1z"/><path d="M173,24h44v40h-1c0-38-44-37-45-37v-1zm48,0h1v36h-1z"/><path d="M64,25h1v33h-1zm55,1h45v38h-45z"/><path d="M280,51h1v2l-1,1c-2,0-2,1-7,6l-3,3h-1v-1zm-164,8h1v1l-4,4h-1v-1zm-53,1h1v1l-3,3h-1v-1zm2,0h1l1,4v1h-2zm104,1h1v4l-5,5h-1v-1l4-4h1v-2l-4,4c-42,0-42,1-44,3h-1v-1l3-3c42,0,42-1,46-5z"/><path d="M219,61h2v1l-2,2h-1v-1zm3,0h1l1,2v1h-2zm-103,11h45v38h-45zm53,32h3v2l-10,10h-45v-1l3-3h1v1l-1,1q-1,0,42,1v-1l5-5l1-1h1v-2l-6,6h-1v-2l5-5z"/><path d="M119,118h45v38h-45zm52,32h1v1l-5,5l-1,1h-1v-1zm3,0h2v1l-5,5l-5,5l-2,1h-44v-1l3-3h1v1l-1,1q-1,0,41,1v-1z"/><path d="M119,163h45v38h-45zm52,33h1v1l-5,5l-1,1h-1v-1zm3,0h1v1l-5,5l-5,5h-1v-1z"/><path d="M124,203h40v1c-40,0-40,1-42,3h-1v-2c2,0,2-1,3-2zm-5,6h45v38h-45z"/></g><g style="fill:rgb(204,172,28);fill-rule:evenodd;stroke:rgb(204,172,28);stroke-width:0.1;" id="l3"><path d="M224,26h44v37h-44zm-210,1h44v37h-44z"/><path d="M67,27h44v37h-44zm105,0h44v37h-44z"/></g><g style="fill:rgb(80,56,32);fill-rule:evenodd;stroke:rgb(80,56,32);stroke-width:0.1;" id="l4"><path d="M280,11h2v40h-1l-1-38v1l-7,7h-1v-1l7-7h1zm-210,1h3v1l-1,2h-3v-1zm53,0h2l1,5v2c-2,0-2,1-5,4c-1,0-1,1,44,1v-1l7-7l2-2h1v-2h1v2l1-2h1l1,5v1l-5,5h-1v2l-1,1h-1v32l-1,1h-1l2,1l1,4v1h4l2,1v33h-2v2h-2v2h2v2h-1l-2-1l-1-2v3c-3,0-3,1-6,4h-1v-1l5-5l5-5h1c0-31-7-31-7-30l-3,3h-1v-1l4-4c3,0,1-2,1-5l-4,4h-1v-2l1-1h1v-2l1-1h1v-34h1v1v-2h1l1,1l-1-1v-1l4-4h1v-4l-10,10l-2,1h-45v-3l4-4h1v-5l-7,7h-1v-1l6-6h1z"/><path d="M228,12h3v4l-1,1h-1c0-3-2-1-3-1v-1l1-1h1zm-157,5h2v1l-1,1h-1zm151,6h3v1l-1,1h-1v36h-2v-1zm-209,1h2v1l-1,1h-1zm46,0h1v42l-1,1h-1v-42z"/><path d="M65,24h3v1l-1,1h-1v34h-2v-2zm52,0h1l1,3v37h45v2h-42l-4-1l-1-5z"/><path d="M217,24h1v42l-1,1h-1v-42zm-96,43h1v1l-2,2h-1v-1zm-2,4h45v1h-45v38h45v2h-42l-4-1v-39z"/><path d="M177,103h1v40l-1,2l-3,3c-2,0-2,1-7,6l-1,1h-1v-1l5-5l5-5h1v-37l-10,10h-1v-1l10-10h2zm96,8h2v1h-2zm15,0h2v1h-2zm51,0h2v1c-2,0-2,1-3,2h-1v-1zm7,1h2v1h-2z"/><path d="M291,114h2l1,2v1h-1l-2-2zm-30,2h1v2h-1zm-144,1h1l1,1v37h-1l-1-37zm176,1h1l1,1v1h-2zm39,0h1v1l-1,1h-1v-1zm12,2h2v1l-1,1h-2v-1zm-61,1h2v2h-2zm11,0h1v8h-1zm-41,1h1v1l-3,3h-3v-1c3,0,3-1,5-3zm16,1h2v1h-2zm57,0h1l1,1v1l-2,2h-1v-1zm16,0h2v1l-1,1h-2v-1zm-58,1h1v2l-1,1h-1v-2z"/><path d="M340,126h1v1l-1,2l-1,1h-1v3l-1,1h-1v-1l1-3l1-1h1v-2zm-18,2h2v1l-2,1h-1v-1zm-78,1h1v1l-1,1h-2v-1zm16,1h2v1c-2,0-2,1-3,2h-1v-1zm33,0h2v1l-1,4l-1,2l-1,1h-1v-1l1-3h1zm-13,3h2v1l-1,2h-1l-1-1v-1zm-41,1h1v1l-4,4h-1v-1zm15,1h1v1l-3,3h-1v-1zm80,0h1v1l-1,2l-2,2h-1v3h-1v-3l1-1h1v-2zm-47,10h1v2l-1,1h-1v-1zm160,0h1v1l-1,3h-1v-3zm-203,1h1v2h-2v-1zm-71,3h3v1h-3zm4,1h1v39l-1,2l-2,2h-1l2,2v2l1-2h1v40l-12,12h-1v-1l4-4h1v-2h2v-2l2-1c1,0,1-2,2-39l-1,2l-2,1h-1v2h-2v2c-2,0-2,1-4,3l-2,1h-45v-1l1-2c46,0,46-1,51-6l3-3c1,0,1-1-2-1l-1-1v2l-5,5h-1v-2l6-6h1l1,1l-1-1v-1l3-3h1c0-37-1-37-1-36l-9,9h-1l-1-1v-1h1c1,1,1,0,12-11z"/><path d="M433,150h1l1,1v1h-1l-1-1zm-166,1h2v1h-2zm-28,1h1v1l-2,2h-1v-1zm151,0h3v2h-3zm-168,1h1v1l-3,3h-1v-2c2,0,2-1,3-2zm61,0h1v1l-4,4h-1v-1zm21,0h1v3l-1,1h-1v2l-1,1h-1v-2l2-2h1zm81,0h1v2h-1zm-3,1h1v2h-1zm13,0h1v2h-1zm-135,1h2v1l-1,1h-1zm-141,1h4v3l-2,2h-1v-1l1-1h1v-2h-3zm5,0h39l1,1v1h-40z"/><path d="M235,157h1v2h-2v3l-1,1h-1v-1l1-3zm19,0h1v2l-2,2h-1v-1l1-1h1zm64,0h1v1l-2,2h-1v-1zm57,0h3v1c-3,0-3,1-4,2l-4,2h-2v-1c2,0,2-1,4-3zm-115,1h2v1h-2zm169,0h2v1l-1,1h-2v-1zm3,0h2v2h-1l-1-1zm59,0h1v2h-2v-1zm-275,1h1v3l-1,1h-1v-2zm83,2h1v2h-1zm37,0h1l1,1v1h-1l-1-1zm60,0h2v1l-1,1h-2v-1zm89,0h3v1h-3zm10,0h2v2h-1l-1-1zm-181,1h1v2h-2v-1zm14,0h2v1h-2zm37,1h2v1l-1,1h-1zm96,0h6v1h-6zm-343,1h1c0,38,44,37,45,37l1,2v1h-1c-40-1-40,0-41,1h-1v-2h-4z"/><path d="M213,164h1v2l-1,2l-1,1h-1v2l-1,1h-1v2l-1,2h-1v-3l2-2h1v-2l1-1h1v-2zm17,0h2v1l-1,1h-2v-1zm19,0h1v1l-1,1h-1v-1zm26,0h1v1l-2,2h-1v-2zm22,0h1v2l-1,2l-1,1h-1v2l-1,1h-1v2l-1,1h-2v-1l3-3h1v-2l1-2l1-1h1zm27,0h3v1h-3zm15,1h1l1,1v2h-1l-1-2zm117,0h2v1h-2zm-145,1h2v1h-2zm12,0h1v1l-1,1h-1v-1zm62,0h1v2h-1zm94,0h2v1l-1,1h-2v-1zm-159,1h1v2l-1,1h-1v-2zm-11,1h2v1l-2,1h-1v-1zm49,0h2v1l-1,1h-1zm109,0h2v1h-2zm-222,1h1v1l-2,2h-2v-1l1-1z"/><path d="M416,169h1v1l-3,3h-1v2l-1,1h-1v-2zm60,0h1v1l-2,2h-1v-1zm-120,1h1v1l-3,3h-1v-1zm22,0h1v1l-1,1h-1v-1zm88,0h1v2l-1,1h-1v-2zm-159,1h1v2h-1zm30,0h1v1l-2,2h-1v3c-2,0-2,1-3,3l-1,1h-1v-1l1-2l2-2h1v-2zm38,0h1v2l-1,1h-3v-1l1-1zm77,0h1v1l-3,3h-1v-1l1-2zm-136,1h1v1l-5,5l-6,6h-1v-1zm67,0h1v2h-1zm-159,1h2v2l-2,2h-1v2l-1,2l-1,1h-1v-1z"/><path d="M241,173h2v1h-2zm189,0h1v2h-1zm-126,1h1v1l-1,1h-1v2l-1,2h-1v-2l1-2zm21,0h1v2h-1zm168,0h1v2l-1,1h-1v-1zm-253,1h2v1h-2zm128,0h1v2h-1zm93,0h1v1l-1,1h-1v3h-2v-1l1-2zm8,0h1v1l-2,2h-1v-1zm-207,1h2v1l-1,1h-1zm60,0h1c0,2,1,1,2,1v1l-1,1h-1l-1-1zm168,1h1v1l-1,1h-1v2l-2,2h-1v2h-1v-2l2-2h1v-2zm-171,1h1v2l-1,1l-2,1h-1v-1zm73,0h1v2h-2v-1zm54,0h2v1l-1,1h-1zm31,0h1v2h-1zm-115,1h1v2h-1zm16,0h1v1l-1,2l-1,1h-1v-2zm-121,1h1v2h-1z"/><path d="M287,180h2v1l-1,1h-1zm-32,1h1v1l-1,1h-1v2h-1v-2zm43,0h1v1l-1,1h-1v3h-1v-3zm146,0h2v1h-2zm12,0h1v3h-1zm8,0h1v1l-1,1h-1v-1zm13,0h2v1h-2zm-88,1h1l1,1v1h-2zm-75,1h1v2l-1,1h-1v-2zm5,0h2v1h-2zm38,0h1v2h-1zm-14,1h1v3h-1zm64,0h1v2l-1,1h-1v-1zm47,0h1v2l-1,2h-1v3h-1v-4l1-2zm-236,1h2v2h-2zm24,0h2v1h-2zm177,0h1v1l-1,1h-1v-1zm41,0h1v1l-1,2h-1v-2zm23,1h1v3l-1,1h-1v-2zm-283,1h2v1h-2zm100,1h1v1l-1,1h-1v-1zm141,0h2v1h-2zm57,0h1v1l-3,3h-2v-2h1c1,1,1,0,3-2z"/><path d="M341,189h1v1l-1,1h-3v-1zm27,0h1v1l-1,1h-1v-1zm9,0h2v2h-1l-1-1zm-178,1h2v1l-1,3h-1zm187,1h1v2h-1zm16,0h2v1l-1,1h-1zm15,0h1v2h-1zm-201,1h1v2h-1zm80,0h2v1h-2zm56,0h2v1h-2zm-68,2h2v1l-1,1h-1zm79,0h2v1l-1,1h-1zm23,0h1v2h-1zm19,0h2v1l-2,1h-1v-1zm13,0h1l1,2v2h-1l-2-2v-1zm-202,1h1v1l-1,4h-1v-4zm136,0h2v1l-1,1h-1zm20,0h1v1l-3,3h-1v-1zm59,0h1v2h-1zm10,0h1v1l-3,3h-1v-1zm-138,1h2v1l-1,1h-2v-1zm23,0h4v1l-1,1h-3z"/><path d="M376,196h1v2l-1,1h-1v-1zm30,0h1l1,1v2h-1l-1-1zm-130,1h1v1l-1,1h-2v-1zm146,0h1v2h-2v-1zm4,0h1v2h-1zm33,0h1v2l-1,1h-1v-1zm-17,2h1l1,1v1h-1l-1-1zm51,0h1v1l-2,2c-2,0-2,1-3,2h-1v-1l2-2c2,0,2-1,3-2zm-194,1h1v2h-1zm-14,1h1l1,1v1h-2zm171,0h1v1l-3,3h-1v-1zm-90,1h1v1l-5,5l-2,1h-1v-1l2-2c2,0,2-1,5-4zm9,0h1v1l-1,5h-1v-5zm22,0h1v1l-3,3h-1v-1zm-182,1h1l1,5v1h-2zm53,0h2v1l-2,1h-1v-1z"/><path d="M443,203h1l2,2v2h-1l-1-1l-1-2zm-246,1h1v5h-1zm133,0h2v1c-2,0-2,1-5,4h-2v-1c2,0,2-1,5-4zm79,0h1l1,2v1h-1l-1-1zm-123,1h2l1,2v1h-1l-2-2zm10,0h1v1l-3,3h-1v-1zm135,0h1v1l-1,1h-1v-1zm21,1h1v1l-2,2h-2v-1l1-1zm-60,1h1v1l-1,1h-1v-1zm35,1h3v1h-3zm55,0h2v1h-2zm-107,1h1c0,2,1,2,2,3v1h-1l-2-2zm37,0h1l1,1v1h7v1l-1,1h-2l-4-1l-2-2zm68,0h1v2h-1zm-362,1h1v37h45v3h-1c0-2-44-1-45-1z"/><path d="M321,210h1v2h-1zm30,0h2v2h-1l-1-1zm4,0h1v2h-2v-1zm32,0h2v1h-2zm38,0h1v1l-1,1h-3v-1zm51,1h1v2h-1zm-259,2h1l2,2v1h-1l-2-2zm37,0h1v1l-1,1h-1v-1zm12,0h2v1c-2,0-2,1-3,2l-2,1h-1v-1l2-2zm-7,5h2v2l-1,1h-1v-2v1l-1,1h-1v2h-1v-2zm-23,2h2v1h-2zm-31,9h2v1h-2z"/></g><g style="fill:rgb(145,128,43);fill-rule:evenodd;stroke:rgb(145,128,43);stroke-width:0.1;" id="l5"><path d="M236,10h45v41l-11,11h-1v-40l10-10h-43zm35,13v-1h-1v1zm1-1v-1h-1v1zm1-1v-1h-1v1zm1-1v-1h-1v1zm1-1v-1h-1v1zm1-1v-1h-1v1zm1-1v-1h-1v1zm1-1v-1h-1v1zm1-1v-1h-1v1zm1-1v-1h-1v1z"/><path d="M27,11h44v1l-1,2l-10,10h-1v-1l7-7l2-2c1,0,1-1-42-1v1l-10,10h-2v-1l5-5l6-6zm52,0h45v8l-5,5h-2v35l-3,3h-1l1,1v1h-1l-1-1v-37l1-2l2-2h1l-1-1v-1l7-7h-43zm38,10v-1h-1v1zm1-1v-1h-1v1zm1-1v-1h-1v1zm1-1v-1h-1v1zm1-1v-1h-1v1zm1-1v-1h-1v1zm1-1v-1h-1v1z"/><path d="M185,11h44v1l-1,2l-10,10h-1v-1l7-7l2-2c1,0,1-1-42-1v1l-5,5l-5,5h-1v-1l5-5h1v-2l4-4zm-55,1h1v1l-4,4h-2v-1c2,0,2-1,5-4z"/><path d="M72,13h1v3h-1zm-2,2h1v4l-6,6h-1v37l-3,3h-1v-40zm-9,47v1l2-2l-1,1zm167-47h1v2l-7,7h-1v37h-2c0,2,1,1,2,1v1l-2,2h-1v-40z"/><path d="M223,25h45v1h-44v37h44v2h-44l-1-2z"/><path d="M66,26h1v38h44v2h-45zm-54,1h2v37h44v2h-44v-2h-2z"/><path d="M171,27h1v37h44v2l-37,1h-1v-1q1,0-6-1l-1-1zm-53,84h4v1h-4zm146,3h1v2h-1zm-10,6h1v2h-1zm-5,4h2v1h-2zm-5,4h1v1l-1,1h-1v-1z"/><path d="M317,136h1v1l-1,1h-1v-1zm121,1h2v1h-2zm-210,8h1v1l-1,1h-1v-1zm-6,6h1v2h-1zm44,1h2v1l-1,1h-1zm-7,1h1v2h-1zm122,1h1v2h-1zm-118,2h1v1l-1,1h-1v-1zm131,7h2v1l-2,1h-1v-1zm102,0h1l1,1v1h-1l-1-1zm-250,3h2v1h-2zm-36,1h2v1h-2zm149,0h2v1h-2zm74,2h1v2l-1,1h-1v-2zm-54,1h1v1l-1,1h-1v-1zm73,0h1v1l-1,1h-1v-1zm-135,11h1v1l-2,2h-1v-2zm73,0h1v2h-1zm53,1h2v1h-2zm-1,2h2v1h-2zm-124,2h1v1l-1,2h-1v-2zm154,5h1v1l-1,2h-1v-2zm-130,2h1v1l-2,2h-1v-1zm10,0h2v2h-2zm133,3h1v1l-1,1h-1v-1zm-148,2h1v1l-1,1h-1v-1z"/><path d="M368,200h1v1l-1,1h-1v-1zm-97,1h1v1l-1,1h-2v-1zm164,1h1v1l-3,3h-1v-1zm-314,2h1v1l-2,2h-1v-1zm145,0h1v2h-1zm8,1h1v1l-3,3h-1v-1zm12,1h1l1,1v1h-1l-1-1zm-69,4h1l1,2v1h-1l-1-1zm30,17h1v1l-1,1l-2,1h-1v-1l1-1zm-41,3h2v1h-2z"/></g><g style="fill:rgb(211,187,68);fill-rule:evenodd;stroke:rgb(211,187,68);stroke-width:0.1;" id="l6"><path d="M235,12h44v1l-10,10h-43v-1l4-4h1v-2zm-209,1h43v1l-10,10h-43v-1z"/><path d="M78,13h44v1l-10,10h-43v-1l4-4h1v-2zm106,0h43v1l-10,10h-43v-1z"/></g><g style="fill:rgb(107,44,11);fill-rule:evenodd;stroke:rgb(107,44,11);stroke-width:0.1;" id="l7"><path d="M175,15h1v4l-6,6h-1v34l-1,1h-1v2l-1,1h-1v-38zm-6,52h7v31l-10,10h-1v-37z"/><path d="M175,107h1v37l-10,10h-1v-37zm-56,10h45v1h-45z"/><path d="M175,153h1v37l-10,10h-1v-37zm0,45h1v37l-1,2l-1,1h-2v2h-2v2l-1,1l-3,3h-1v-38l3-3h2v-2h2v-2l1-1h2z"/><path d="M119,201h44v1h-44z"/></g><g style="fill:rgb(134,134,133);fill-rule:evenodd;stroke:rgb(134,134,133);stroke-width:0.1;" id="l8"><path d="M236,9h46v1h-46zm-210,1h46v2h-46zm53,0h46v1h-46z"/><path d="M132,10h45l2,2v3l3-3h1v1l-4,4h-1l-1-5v-1l-45,1h-1v-1zm52,0h46v2h-46z"/><path d="M24,12h1v1l-5,5l-7,7h-1c0,40,1,40,46,41v1h-45l-2-2v-40z"/><path d="M73,12h1v3l3-3h1v1l-4,4h-2v-1c2,0,1-1,1-4zm158,0h3v1l-2,2h-2v-1c2,0,1-1,1-2zm51,0h1v40l-8,8h-1v2l-1,1l-2,2h-1v-2l10-10h1v-2h1zm-157,1h1v3h-1zm-61,47h1l1,5v1h45v1h-46l-1-2v-2l-3,3h-1v-1l3-3h1z"/><path d="M116,61h2v4h-1v-2l-3,3h-1l-1-1v-1c2,0,2-1,4-3zm105,0h1v3h2v1h44v1h-46c0-2-2-2-2-1l-1,1h-1v-1l2-2h1zm-43,4h1l37,1v1c-37,0-37,32-39,34h-1l1,1v1h-3v-2h2v-2c2,0,1-1,1-2l1-30h1l-1-1z"/><path d="M118,66h3v1h-3zm-1,4h1v42h-1zm61,33h1v42l-2,2h-1l1,1v1h-4v-1l3-3h1v-2h1zm104,6h3v1h-3z"/><path d="M347,113h1v2h-1zm-13,1h1v1l-2,2h-1v2l-1,1h-1v-1l1-2zm-217,1h1v2h-1zm145,0h1v2h-1zm-2,1h1v2l-1,1h-1v-2zm34,1h1v2h-1zm-177,1h1v39h4v2l-3,3h-1v41h4v1h-5v-42l3-3q1,0-3-1z"/><path d="M257,118h1v1l-1,1h-1v-1zm-5,4h1v1l-1,1h-1v-1zm19,0h2v1h-2zm-3,2h2v1h-2zm57,0h1v2h-1zm16,1h2v1l-1,2l-1,1h-1v2l-1,1h-1v-2l1-1h1v-2zm-95,1h2v1l-2,2h-1v-2zm18,1h1v1l-1,1h-1v-1zm18,0h1v2h-1zm41,0h2v1h-2zm-63,4h1v1l-1,1h-1v-1zm59,1h2v1h-2zm-62,1h1v1l-5,5l-1,1h-1v-1zm61,1h1v1l-1,1h-1v-1zm122,2h5v1h-5zm-162,1h1v1l-1,2l-2,2h-1v-1l1-1h1v-2zm14,0h1v2h-1zm154,0h1l1,1v1h-1l-1-1zm-132,3h1v1l-2,2h-1v-1zm134,0h1v5h-1z"/><path d="M249,141h1v1l-2,2h-1v2l-1,1h-1v-2zm186,0h1v1l-2,4h-1v-2l1-2zm-161,2h1v1l-1,1h-1v-1zm55,0h1v2l-1,1h-1v-2zm-19,2h1v1l-1,1h-1v-1zm16,2h1v2h-2v-1zm-18,1h1v1l-1,1h-1v-1zm-130,1h1v41l-2,2h-1l3,3v41l-13,13h-1v-1l5-5l7-7h1c0-41-1-41-4-42v-1l2-2h1v-2h1z"/><path d="M221,152h1v2h-1zm167,0h1v2h-1zm5,0h1v2h-1zm-128,1h1v2l-1,1c-2,0-2,1-3,2h-1v-2c2,0,2-1,4-3zm119,0h1v2h-1zm-128,2h2v1l-2,2h-1v-2zm122,0h2v2h-2zm18,0h1l1,2v2h-1l-1-2zm-178,1h1v2l-1,1h-1v-2zm83,1h1v1l-1,2l-1,1h-1v2l-1,1h-1v2l-1,1h-1v2l-1,2l-2,2h-1v-1l1-2l1-1h1v-2l1-1h1v-2l1-1h1v-2l1-1h1v-2zm-22,1h1v1l-1,1h-1v-1zm148,0h2v1l-1,1l-2,1h-2v-1l1-1zm7,0h1l1,1v2h-1l-1-1zm55,0h2v1l-1,1h-1zm3,0h4v1h-4zm-175,1h1v1l-2,2h-1v-1z"/><path d="M370,159h1v1l-1,1h-2v-1zm-155,1h1v1l-1,2l-1,1h-1v2l-1,1h-1v-1l1-2l1-1h1v-2zm36,0h1v1l-1,1h-1v2l-1,1h-1v-2zm81,0h5v1h-5zm-4,1h1v1l-1,2h-3v-1l1-1zm94,0h1v2c-2,0-2,1-3,2h-1v2l-3,3h-1v-1l2-2h1v-2zm-146,1h1v1l-2,2h-1v-1zm186,0h3v1h-3zm21,0h2v1h-2zm-25,1h3v1l-2,1h-2v-1zm9,0h2v5h-1l-1-3zm-128,1h2v2h-1l-1-1zm23,0h3v1h-3zm-50,1h2v1h-2zm10,0h2v1l-2,2h-1v-2zm72,0h1v2h-1z"/><path d="M479,165h3v1l-3,1h-1v-1zm-250,1h2v1l-1,1h-1zm158,0h1v2h-1zm-143,2h2v1l-1,1h-2v-1zm-16,1h1v1l-1,2l-1,1h-1v-2zm81,0h2v1l-2,2h-1v-2zm158,0h2v1l-1,1h-1zm-259,1h2v1l-2,2h-1v-1zm266,0h1v1l-1,1h-1v-1zm22,0h2v1l-1,1h-1v2l-1,1h-1v-2l1-1h1zm-255,2h2v1h-2zm96,0h1v1l-1,1h-1v2h-1v-2zm94,0h2v1h-2zm-79,1h1v1l-5,5h-1v-1zm97,0h1v1l-1,1h-1v-1zm-209,1h2v1h-2zm65,0h1v1l-1,1h-1v2l-1,1h-1v-1l1-2zm66,0h2v1l-1,1l-2,1h-1v-2z"/><path d="M431,174h1v1l-1,1c-2,0-2,1-7,6l-1,1h-1v2l-2,2h-1v-1l1-2l9-9zm31,0h2v1l-1,1h-1v2h-1v-2zm-138,1h1v2l-1,1h-1v-2zm-100,1h1v1l-1,1h-1v-1zm143,0h1v2h-1zm43,0h1v2h-2v-1zm37,0h1v2h-2v-1zm-243,1h2v1l-1,2l-1,1h-1v-2zm35,0h2v1h-2zm22,0h1v2h-2v-1zm27,0h2v1l-1,1h-1zm91,0h1v2h-2v-1zm14,0h1v3h-1zm86,0h2v1l-1,2h-1zm-158,1h1l1,1v1h-1l-1-1zm11,0h1v2l-1,1h-1v-1zm134,0h1v1l-1,1h-1v-1zm24,0h1v1l-1,2l-1,1h-1v-1l1-2z"/><path d="M258,179h1v2h-1zm187,0h1v2h-2v-1zm31,0h1v2l-1,1h2v1h-2l-2-1v-1zm-19,1h1v3h-1zm-236,1h1v2l-1,2h-1v-2zm35,0h1v2l-1,1h-2v-1zm30,1h2v1l-1,1h-1zm43,0h1v2h-1zm-11,2h2v1h-2zm157,0h2v1h-2zm-275,2h2v1h-2zm45,0h2v1h-2zm40,0h2v2h-2zm156,1h2v1h-2zm17,0h1v1l-4,4h-2v-1l2-2c2,0,2-1,3-2zm41,0h2v1h-2zm-189,1h1v2h-1zm31,0h2v1l-2,1h-2v-1zm64,0h2v1l-2,2h-3v-1l1-1zm-206,1h2v1h-2zm99,0h1v2l-1,1h-1v-2zm175,0h1v1l-1,1h-1v-1z"/><path d="M495,189h2v1l-1,1h-1zm-118,1h1v2h-1zm88,0h1v1l-1,2h-1v-2zm-248,1h1v3h-1zm119,0h1v2h-2v-1zm101,0h2v1l-1,1h-1zm-113,1h1l1,3v2h-1l-1-2zm40,0h2v2h-3v-1zm11,0h1v1l-2,2h-1v-1zm25,0h2v1l-1,1h-1zm91,0h1v2l-1,1h-1v-2zm-185,1h1v1l-1,2h-2v-1zm128,0h1v2h-1zm-103,1h1v2l-1,1h-1l-1-1v-1zm56,0h1l2,2v1l2-1h1v2h-3l-1-1v-1h-2zm9,0h2v2h-1v-1l-1,1h-1v-1zm92,0h1v1l-1,1h-2v-1zm-210,1h1v1l-1,1l-2,1h-1v-1l1-1zm35,0h1v2h-1zm129,0h1v4h-1l-1-2v-1z"/><path d="M375,196h1v2h-1zm53,0h2v1l-1,1h-1zm32,0h2v1l-1,1h-1zm9,0h1v2l-1,2h-1v-2zm12,0h1l1,1v1h-1l-1-1zm-124,1h2v2h-1c-1-1-1,0-2,1h-1v-2zm14,0h1v1l-2,2h-1v-1zm32,0h1v1l-5,5h-1v-1zm17,0h2v1h-2zm4,0h2v1h-2zm-122,1h1v1l-1,1h-1v2l-3,3h-1v-1l2-2h1v-2zm136,1h1v1l-2,2h-1v-1zm-103,1h1v1l-2,2h-1v-1zm107,0h1l1,1v2h-1l-1-2zm15,0h2v1l-4,4h-1v2h-1v-2l3-3h1zm-260,2h1v2h-1zm210,0h2v4h-1l-1-2z"/><path d="M490,202h1v1l-1,1h-1v-1zm-204,1h1v2h-1zm44,2h1v1l-2,2h-1v-1zm-34,1h1v1l-3,3h-2v-1c2,0,2-1,4-3zm51,0h1l3,3v1h-1l-3-3zm97,0h1l2,1v2h-2l-1-2zm-327,1h2v1l-1,40h-1zm145,0h1v1l-3,3l-2,1h-1v-1l2-2c2,0,2-1,3-2zm98,1h1v1l-1,1h-1v-1zm14,0h1c0,3,1,3,3,5v1h-1l-3-3z"/><path d="M312,209h1l1,1v2h-1l-1-2zm12,0h2v1l-1,1h-1zm65,0h2v1h-2zm38,0h2v1l-2,1h-1v-1zm54,0h2v1l-1,1h-1zm-2,1h1v2h-1zm-282,1h1v2h-1zm118,0h1l2,1v1h-3zm72,0h2v1l-2,1h-1v-1zm90,0h1v2h-1zm-62,1h3v1h-3zm-162,1h1v1l-1,1l-4,2h-2v-1zm126,0h2v1h-2zm4,0h2v1h-2zm-117,1h1v1l-2,2h-2v-1c2,0,2-1,3-2zm-68,2h1v3h-1zm22,0h1l1,1v1h2v1h-2l-2-2zm41,1h1v2h-1zm-22,2h2v1h-2zm20,0h1v1l-1,2h-2v-1zm-32,1h2v1h-2zm7,0h2v1h-2zm21,2h1v2h-2v-1z"/><path d="M252,224h1v1l-1,1h-1v-1zm-51,1h2v2h-1l-1-1zm11,8h2v1h-2zm16,1h2v1h-2zm-110,15h45v1h-45z"/></g><g style="fill:rgb(156,99,60);fill-rule:evenodd;stroke:rgb(156,99,60);stroke-width:0.1;" id="l9"><path d="M132,13h42v1l-10,10h-42v-1zm36,50h1v2l-5,5h-43v-1l2-2c42,0,42-1,45-4z"/><path d="M172,105h1v1l-1,2l-7,7h-43v-1l2-2c42,0,42-1,48-7zm0,45h2v1l-10,10h-42v-1l2-2c41,0,41-1,48-8z"/><path d="M172,196h2v1l-10,10h-42v-1l2-2c41,0,41-1,48-8z"/></g><g style="fill:rgb(193,193,193);fill-rule:evenodd;stroke:rgb(193,193,193);stroke-width:0.1;" id="l10"><path d="M235,9h1v2l-1,1c-2,0-2,1-3,2h-1v-1l1-1h-2v-2h2c1,2,1,1,3-1zm47,0h1v2h-1zm-257,1h1v2c-2,0-2,1-7,6l-7,7h-1v-1zm47,0h2v2h-2zm6,0h1v2c-2,0-2,1-5,4h-1v-1zm47,0h1v2h-1zm5,0h2v1l-5,5h-1v-2zm47,0h2v2h-1l-1-1zm6,0h1v2c-2,0-2,1-4,3h-1v-1zm38,54h1v2h-1zm-210,1h1l1,1v1h-2zm53,0h1v2h-1z"/><path d="M117,65h1v2h-1zm4,1h1v1l-3,3h-1v-1zm56,36h2v1h-2zm102,7h3v1h-3zm8,1h2v1h-2zm53,0h4v1h-4zm5,1h2v1h-2zm-224,1h1v1l-3,3h-1v-2c2,0,2-1,3-2zm227,1h1v2h-1zm-55,1h1v2h-1zm-35,3h1v2h-1zm72,1h1v1l-1,2l-1,1h-1v-2zm-75,1h1v2h-1zm22,0h2v1h-2zm4,0h2l1,1v1h-2l-1-1zm-6,1h1v1l-1,1h-2v-1zm20,1h1v8h-1zm-44,1h1v1l-1,1h-1v-1zm92,0h2v1h-2zm-76,3h2v1h-2zm57,0h1v2h-2v-1zm-59,2h1v1l-1,1h-1v-1zm16,2h2v2h-2zm39,1h1v2h-2v-1z"/><path d="M294,131h1v3h-1zm-55,2h1v1l-4,4h-1v-1zm19,0h1v1l-5,5l-6,6h-1v-1l2-2h1v-2c2,0,2-1,8-7zm20,2h2v1h-2zm15,0h1v2h-1zm41,2h1v1l-1,1h-1v2l-1,1h-1v-2zm-19,1h1v1l-1,1h-1v-1zm-27,8h1v1l-1,2h-2v-1zm39,0h1v2h-1zm120,0h1v2h-1zm-221,1h1v1l-1,1h-1v-1zm45,0h1v1l-2,2h-1v-1zm-94,1h2v1h-2zm268,1h1v1l-3,3h-1v-1zm-204,1h1v1l-1,1h-1v-1zm44,0h1v1l-1,1h-1v-1zm39,0h1v1l-1,1h-1v-1z"/><path d="M305,151h1v2h-1zm-45,1h2v2h-2zm127,0h1v2h-1zm48,0h1l5,1v1h-5l-1-1zm-215,1h1v2h-1zm38,0h1v2h-2v-1zm125,0h1v2h-1zm-80,1h1v2l-1,1h-1v-2zm18,0h1v1l-2,2h-1v-1zm-84,1h1v1l-1,1h-1v-1zm44,1h1v1l-1,1h-1v-1zm211,1h3v1h-3zm-372,1h1v1l-3,3h-1v-1zm114,1h2v1l-1,1h-1zm98,0h4v1h-4zm164,0h1v2h-1zm-159,1h1l1,1v2h-1l-1-1zm99,1h1v2h-1zm-71,1h1v1l-1,1h-2v-1zm95,0h2v1h-2zm5,0h2v1h-2zm32,0h1v2h-1zm-266,1h2v1h-2zm16,1h1v2h-2v-1zm66,0h2v1h-2z"/><path d="M480,164h2v1h-2zm-45,1h1v2l-1,2h-1v-2zm34,0h1v3h-1zm-110,1h2v1l-2,1h-1v-1zm58,0h1v1l-2,2h-1v-1zm-189,2h2v1h-2zm156,0h1l1,1v1l-1,1h-1v-1h1l-1-1zm91,0h2v1l-1,1h-1zm-206,2h2v1l-4,4h-1v-2zm86,0h1v1l-2,2h-1v-1zm96,0h1v1l-1,1h-1v-1zm-135,1h1v1l-5,5l-7,7h-1v-1zm80,0h1v2h-1zm101,0h1v1l-1,1h-1v-1zm-160,2h1v1l-1,1h-1v-1zm45,0h1v1l-1,1h-1v-1zm49,0h2v1h-2z"/><path d="M206,174h1v2h-2v-1zm99,1h1v1l-1,1h-1v-1zm158,0h1v1l-1,1h-1v-1zm-224,1h2v1h-2zm190,0h2v1l-7,7l-2,2h-1v-1l1-2zm-96,1h1v2h-1zm158,0h1v2l-1,1h-1v-1zm-268,1h1v1l-1,2h-1v-2zm97,0h1l1,1v1h-2zm158,0h1v3h-2v-1zm-219,1h2v1l-1,1h-1zm87,0h1v1l-1,1h-1v-1zm15,1h1v2l-1,1h-1v-2zm30,0h2v2l-1,1h-1zm67,0h1v2h-1zm6,0h1v1l-2,2h-1v-1zm-262,1h2v1h-2zm97,0h1v2l-2,2h-1v-2zm31,0h1v2h-1zm-11,1h2v1h-2zm154,0h2v1l-3,3h-1v-2z"/><path d="M487,182h1v2l-1,1h-1v-2zm-113,1h1v1l-1,1h-1v-1zm-134,1h2v2h-1l-1-1zm12,0h1v2h-1zm76,0h1v2h-2v-1zm61,0h1v2h-1zm66,0h1v2l-1,1h-1v-1zm-212,2h2v1h-2zm4,0h2v1h-2zm108,0h1v1l-1,1h-1v-1zm-44,1h2v1l-1,1h-1zm75,1h2v1h-2zm67,0h1v3h-1zm-137,1h1v1l-2,4h-1v-2l1-2zm122,0h2v2h-2zm28,0h2v1l-2,2h-1v-1zm-129,1h1v2h-1zm63,1h2v1l-2,1h-1v2h-1l-1-1v-1c2,0,2-1,3-2zm81,0h1v2h-1zm11,0h1v2h-1zm-158,1h1v2h-1zm42,0h1v3h-1c-1-1-1,0-3,2h-1v-1zm59,0h1v2h-1z"/><path d="M177,193h2v2h-1l-1-1zm130,0h1v1l-1,1h-1v-1zm163,0h1v2h-1zm19,0h1v2h-1zm-291,1h1v2h-1zm80,0h1v1l-1,1h-1v-1zm64,0h1v1l-5,5l-3,3h-1v-1zm19,0h2v1l-1,1h-1zm71,0h1v2h-1zm-147,1h1v3h-2v-2zm120,0h1v1l-1,1h-1v-1zm14,0h1l2,1v1h-2l-1-1zm62,0h1l3,1v1h-3l-1-1zm-265,1h1v4h-1zm137,0h1v2h-1zm37,0h2v1h-2zm-78,1h1v3h-1zm31,0h1v2h-1zm97,0h2v2h-1v-1l-1,1h-1v-1zm-243,2h1v3h-1zm84,0h1v1l-5,5h-1v2l-1,1l-4,4h-2v-1z"/><path d="M302,199h1v1l-1,1h-1v-1zm-31,1h1v1l-1,1h-1v-1zm73,0h1l2,4v2h-1l-2-4zm30,0h1v3h-1zm68,1h1v2h-1zm-131,1h1v5h-1zm156,0h1v4h-1zm-251,1h1v5h-1zm69,0h1v2h-1zm112,0h1v1l-3,3h-1v-1zm-277,1h1v1l-2,2h-1v-1zm178,0h1v1l-1,1h-1v-1zm157,0h1v1l-1,1h-1v-1zm33,0h1v1l-2,2h-1v-1zm-57,2h2v1l-1,1h-2v-1zm-144,2h1l2,1v1h-2l-1-1zm61,0h1l2,2v1h-1l-2-2zm44,0h1v1l-2,2h-2v-1c2,0,2-1,3-2zm76,0h1l1,2v2h-1l-1-2z"/><path d="M447,209h3v1h-3zm-191,2h1v1l-1,1h-1v-1zm63,1h2v1h-2zm56,0h1l1,1v1h-1l-1-1zm-178,1h1v2h-1zm182,1h3v1h-3zm-158,2h1l1,1v1h-1l-1-1zm41,1h2v1l-1,1h-1zm-20,1h2v1h-2zm-13,2h5v1h-5zm-30,2h2v2h-1l-1-1zm42,8h2v1h-2zm-34,1h2l2,1v1h-2l-2-1zm27,2h2v1h-2zm-19,1h3v1h-3zm15,0h2v1h-2zm-113,14h1v2h-1z"/></g><g style="fill:rgb(43,34,25);fill-rule:evenodd;stroke:rgb(43,34,25);stroke-width:0.1;" id="l11"><path d="M176,12h1v2h-1zm-58,12h2v1l-1,2h-1zm53,0h1v1l-1,1h-1v-1zm97,0h1l1,40v1l-1,1h-1zm-157,1h1l1,40v1l-1,1h-1zm59,33h1v2h-2v-1z"/><path d="M170,64h1l1,1v1c-3,0-3,1-7,5l-46,1h-1v-2c47,0,47-1,52-6zm-47,1h1v1l-1,1h-1v-1zm53,0h2v1h-2zm-4,37h1v2h-2v-1zm4,1h1v3c-2,0-2,1-9,8l-2,2h-1v-1l5-5l5-5h1zm-7,2h1v1l-4,4h-1v-1z"/><path d="M123,111h1v1l-3,3q-1,0,43,1v1l-45,1h-1v-2zm142,3h2v1l-1,1h-1zm10,5h2v1l-2,1h-1v-1zm-22,2h1v1l1-1h1v1l-1,1h-1l-1-1zm15,2h1v1l-1,1h-1v2l-3,1h-1v-1l1-1c2,0,2-1,4-3zm-24,7h1v1l-1,1h-1v-1zm15,0h1v1l-2,2h-1v-1zm-19,2h2v1l-1,1h-1zm96,0h1v1l-1,1h-1v-1z"/><path d="M319,134h1v1l-1,1h-1v-1zm122,3h5l1,1v1h-1l-5-1zm-125,1h1v1l-1,1h-1v-1zm-82,1h1v1l-1,1h-1v-1zm14,2h1v1l-2,2h-1v-1zm28,0h1v1l-1,1h-1v-1zm-48,5h1v1l-4,4h-1v2h-1v-2zm-56,2h1v2c-2,0-2,1-7,6h-1v-1zm4,1h2v1l-5,5l-7,7h-1v-1l5-5l5-5h1zm132,0h1v1l-1,1h-1v2h-1v-2zm-190,6h1v2h-1zm147,0h1v1l-3,3h-1v-1z"/><path d="M123,156h1v2h-1zm40,0h1l1,1v1h-1l-1-1zm97,1h1v1l-1,1h-1v-1zm-5,1h1v1l-1,1h-1v-1zm176,0h1l1,1v1h-1v-1l-1,1h-1v-1zm-131,2h1v2h-1zm-181,1h1l44,1v1l-45,1h-1v-2zm248,1h2v1h-2zm27,0h1v1l-1,1h-1v-1zm91,0h2v1l-2,1h-1v-1zm-271,1h1v2h-1zm84,0h1v2h-1zm40,0h2v1l-1,1h-1zm25,2h1v1l-1,1h-2v-1zm-24,1h1v3h-1z"/><path d="M310,167h2v1h-2zm73,0h1v2h-2v-1zm35,0h1v1l-1,1h-1v-1zm36,0h2v1h-2zm23,0h1v2h-1zm-159,2h1v2h-1zm148,0h1v1l-1,1h-1v-1zm-241,2h1v2h-1zm160,0h1v1l-1,1h-1v-1zm110,0h1v1l-2,2h-1v-1zm-81,1h1v1l-1,1h-1v-1zm50,0h1v2h-1zm9,0h1v1l-3,3h-1v-1zm-168,1h2v1h-2zm-15,2h1v2h-2v-1zm92,0h1v1l-2,2h-1v-1zm30,0h1v1l-1,1h-1v-1zm-46,1h1v2h-2v-1zm-65,1h1v1l-1,3h-2v-1l1-2zm166,1h1v1l-2,2h-1v-1zm-59,2h2v1h-2zm-169,1h2v1h-2zm120,0h1v1l-1,1h-1v-1zm-14,1h1v1l-1,2h-1v-2z"/><path d="M455,182h1v2h-1zm-215,1h2v1h-2zm12,0h1v1l-1,1h-1v-1zm35,0h1v2h-2v-1zm156,0h2v1h-2zm19,0h1v1l-1,1h-1v-1zm-167,1h1v2h-1zm175,0h1v2l-3,3h-2v-1zm-158,1h1v2h-1zm130,0h2v1h-2zm-69,1h1v1l-6,6h-2v-2h1c1,1,1,0,6-5zm34,0h1v1l-1,1h-1v-1zm-82,1h2v1l-1,2h-1zm-40,1h1v2l-1,1l-2,2l-2,1h-1v-1l1-1l2-1h1v-2zm214,0h2v5l-4,4h-1v-1l2-2h1v-2h1l-1-3zm-199,1h1v1l-2,2h-1v-1zm-83,1h1v1l-1,1h-1v-1z"/><path d="M308,190h1v1l-3,3h-1v-1zm44,1h2v1h-2zm64,0h1v2h-1zm20,1h1v2h-1zm-37,1h1v2h-1zm63,0h1v1l-2,2h-1v-1zm-290,1h1v1l-1,1h-1v-1zm44,0h1v1l-1,1h-1v-1zm-40,1h1v2h-1zm220,0h1v1l-1,1h-1v-1zm-53,1h1l1,1v1h-1l-1-1zm16,0h1l1,1v1h-2zm68,1h1v2h-1zm-51,1h1v1l-1,3h-1v-3zm117,0h1v1l-2,2h-1v-1zm-158,1h1v1l-2,2h-1v-1zm102,0h1v1l-3,3h-1v-1zm-164,1h1v1l-1,1h-1v-1zm93,1h1v1l-4,4h-1v-1zm-68,1h1v1l-3,3h-1v-1zm77,1h1v2h-1z"/><path d="M268,204h1v1l-1,1h-1v-1zm218,0h1v1l-1,2h-1v-2zm-139,1h1l2,2v1h-1l-2-2zm-82,1h1v1l-2,2h-1v-1zm62,0h1v1l-1,1h-1v-1zm48,0h1v3h-1zm17,0h2v2h-1l-1-1zm-273,1h1v1l-1,2h-1v-2zm309,0h2v1h-2zm-138,1h1v1l1-1h1v1l-1,1h-2zm135,1h2v1l-2,1h-2v-1zm44,0h1l1,1v1h2v1h-3l-1-2zm-116,1h2v1l-1,1h-1zm-95,1h1v1l-1,1h-2v-1zm128,0h1v1l-1,1h-1v-1zm32,0h2v1h-2zm-152,1h1v1l-1,1h-1v-1zm-15,3h1v1l-1,1h-2v-1zm-50,8h1v2h-1zm2,3h1l1,1v1h-2zm41,2h1v1l-1,1h-1v-1zm-35,3h2l1,1v1h-1l-2-1z"/><path d="M237,231h1v2h-2v-1zm-3,1h1v1l-1,1h-1v-1zm-16,2h3v1h-3z"/></g><g style="fill:rgb(105,101,97);fill-rule:evenodd;stroke:rgb(105,101,97);stroke-width:0.1;" id="l12"><path d="M281,10h1l1,1v1h-1l-1-1zm-157,1h1l1,1v1h-1l-1-1zm8,0h45v1h-45zm-120,14h1v2h-1zm266,29h1v1l-7,7l-2,2h-1v-1zm-162,6h2v1c-2,0-2,1-3,2h-1v-1zm-104,4h2v2h-1l-1-1zm106,1h4v1h-4zm158,45h2v1h-2zm-6,2h2v1h-2zm67,0h1v1l-5,5h-1v-1z"/><path d="M346,116h2v2l-1,2h-2v-2zm-89,3h2v1l-2,1h-1v-1zm73,1h1v1l-1,1h-1v-1zm-47,3h2v1l-1,1h-1zm0,4h1v2h-1zm39,2h1v1l-1,1h-1v-1zm-42,3h2v1h-2zm38,1h2v1h-2zm17,1h2v1l-2,2h-1v-1zm-57,2h2v1h-2zm13,3h1v2l-2,4l-1,1h-1v-1zm98,13h1v2h-1zm-13,4h2v1h-2zm-123,2h1v1l-1,1h-1v-1zm235,1h1v1l-1,1h-2v-1zm7,0h1v2h-1zm-165,1h1v1l-1,1h-1v-1zm-79,1h1v1l-1,1h-1v-1zm116,0h1v1l-1,1h-1v-1zm54,2h1v1l-2,2h-1v-1zm61,0h2v1h-2zm-121,2h2v1h-2zm-133,2h1v1l-1,2l-1,1h-1v-1l1-2z"/><path d="M386,167h1v3l-2,2h-1v-1l1-1h1zm-176,1h1v1l-1,1h-1v-1zm130,0h1v2l-1,1h-1v-2zm55,0h1v2h-1zm58,0h1v1l-1,1h-1v-1zm-184,1h2v1c-2,0-2,1-4,3h-1v2h-1v-2zm112,0h2v1l-2,1h-1v-1zm33,1h1v1l-1,1h-1v-1zm58,2h1v1l-2,2h-1v-1zm-90,2h1v1l-2,2h-1v-1zm13,0h1v2l-1,1h-1v-2zm-190,2h2v1h-2zm116,1h1l1,1v1h-1l-1-1zm139,0h1v2h-1zm-96,1h2v1l-1,1h-1zm45,0h2v1l-1,1h-2v-1zm-89,3h2v1h-2zm25,0h1v1l-1,1h-1v-1zm62,0h2v1h-2zm-205,1h2v1h-2zm37,0h2v1h-2zm136,0h1v2l-1,1h-1v-1z"/><path d="M201,184h2v1h-2zm187,0h1v2h-2v-1zm18,0h1v2h-1zm-156,1h2v1h-2zm235,0h1v1l-1,1h-1v-1zm-189,1h1v6h-1zm90,1h2v1h-2zm-169,1h2v2h-2zm92,1h1v2h-1zm29,2h1v1l-1,1h-1v-1zm155,0h1v2l-1,1h-1v-1zm-30,1h1v2h-1zm-130,1h3v1l-1,1l-2,1h-1v-2zm-158,1h2v1h-2zm185,1h1v1l1-1h1v1l-1,1h-2zm128,0h2v1l-4,2h-1v-1l1-1zm-290,1h1v2h-1zm141,0h1v1l-1,1h-1v-1zm48,0h2l1,1v1h-1l-2-1zm36,1h1l2,1v1h-3zm-142,1h1v1l-5,5l-1,1h-1v-1z"/><path d="M406,198h1l1,1v1h-2zm81,6h1v1l-1,1h-1v-1zm-222,1h1v1l-3,3h-1v-1zm144,1h1l1,1v1h-2zm43,1h1v1l-1,1h-1v-1zm-164,1h2v1h-2zm159,0h2v1h-2zm-250,1h1v2h-1zm73,0h1v1l-1,1h-1v-1zm53,0h1v2l-1,1h-1v-2zm-4,2h2v1l-2,1h-1v-1zm102,0h1l1,1v1h-3v-1zm-204,1h1l2,2v1h-1l-2-2zm28,5h2v1h-2zm-46,3h1v2h-1zm51,5h1v1l-1,1h-1v-1zm-73,10h1v1l-5,5l-7,7h-1v-1zm-58,13h44v1h-44z"/></g><g style="fill:rgb(60,60,59);fill-rule:evenodd;stroke:rgb(60,60,59);stroke-width:0.1;" id="l13"><path d="M290,112h1l1,1v1h-1l-1-1zm46,2h1v1l-3,3h-1v-1zm-73,1h1v2h-1zm64,7h2v1l-1,1h-1zm-80,5h1v1l-2,2h-1v-1zm34,4h2v1h-2zm-25,2h1v1l-1,1h-1v-1zm181,5h3v1c-2,0-2,1-3,2h-1v-2zm-187,1h1v1l-1,1h-1v-1zm197,0h1v3h-1zm-215,2h1v1l-3,3h-1v-1zm81,1h1v1l-2,2h-1v-1zm-39,2h1v1l-2,2h-1v-1zm53,1h1v1l-2,2h-1v-1zm-85,3h2v1h-2zm80,4h1v1l-2,2h-1v-1zm-64,3h1v1l-2,2h-1v-1zm116,2h1l1,1v1h-1l-1-1zm-121,3h1v1l-3,3h-1v-1zm24,0h1v1l-1,1h-1v-1z"/><path d="M331,160h1v2h-2v-1zm157,0h2v1h-2zm-256,1h1v1l-1,1h-1v-1zm191,0h2v1l-1,1h-1zm73,3h1l1,1v1h-2zm-224,2h1v2l-1,1h-1v-2zm183,0h2v1h-2zm-210,1h2v1h-2zm112,1h1v2h-1zm24,0h1v1l-1,1h-2v-1zm73,0h1v1l-1,1h-1v-1zm-116,2h1v2h-1zm39,0h1v1l-1,2h-1v-2zm-25,4h1v1l-5,5l-1,1h-1v-1zm96,1h2v1l-1,1h-1zm-209,3h2v1h-2zm82,2h2v1h-2zm8,1h1v1l-1,2l-1,1h-1v-1l1-2zm78,1h2v1h-2zm-34,3h1v1l-5,5l-1,1h-1v-1zm-71,1h1v1l-1,1h-1v-1z"/><path d="M475,186h1v1l-1,2h-1v-2zm-17,2h1v1l-3,3h-1v-1zm-18,1h2v1h-2zm-132,2h1v1l-1,1h-1v-1zm67,0h4v1l-1,3l-1,1h-1v-1l1-3h-2zm58,3h1v2h-1zm29,0h1v1l-1,1h-1v-1zm-179,2h1v1l-1,1h-1v-1zm44,0h2v1h-2zm66,0h1v2h-1zm10,0h1v1l-5,5h-1v-1zm92,1h1v1l-1,1h-1v-1zm-194,1h1v1l-1,1h-1v-1zm43,0h1l1,2v2h-1l-1-2zm-71,1h2v1l-2,1h-1v-1zm95,0h1v1l-1,1h-1v-1zm65,4h1v1l-1,1h-1v-1zm11,0h1v1l-1,1h-1v-1zm-53,4h1v1l-1,1h-1v-1zm19,1h2l1,2v1l1-1h1v1l-1,1h-1l-3-3z"/><path d="M261,209h1v1l-1,1h-1v-1zm53,1h1v2h-1zm-46,1h1v2h-2v-1zm48,0h3v1h-3zm-91,8h1l1,1v1h-1l-1-1zm29,3h1v1l-1,1h-1v-1zm-50,6h2v1h-2zm21,6h3v1h-3z"/></g><g style="fill:rgb(188,156,22);fill-rule:evenodd;stroke:rgb(188,156,22);stroke-width:0.1;" id="l14"><path d="M230,17h1v1l-5,5h-1v-1zm-160,4h1v1l-2,2h-1v-1zm-56,5h44v1h-44zm53,0h44v1h-44z"/><path d="M172,26h44v1h-44z"/></g><g style="fill:rgb(52,52,52);fill-rule:evenodd;stroke:rgb(52,52,52);stroke-width:0.1;" id="l15"><path d="M268,113h2v1h-2zm5,7h1v1l-1,1h-2v-1zm-12,9h2v1h-2zm62,0h1v1l-2,2h-1v-1zm-82,2h2v1h-2zm206,11h1v2h-1zm-119,1h1v1l-1,1h-1v-1zm-18,3h1v1l-1,1h-1v-1zm-40,3h1v1l-1,1h-1v-1zm15,0h1v1l-1,1h-1v-1zm39,0h1v1l-1,1h-1v-1zm120,0h1v1l-3,3h-1v-1zm-50,4h1v2h-1zm-175,4h1v1l-1,1h-1v-1zm56,5h1v1l-1,1h-1v-1zm37,2h1v1l-1,1h-1v-1zm170,0h2v1h-2zm-95,1h2v2h-1l-1-1zm-66,3h1v1l-1,1h-1v-1zm-14,2h1v1l-1,2h-1v-2zm-43,4h1v2h-2v-1zm228,1h1v1l-1,1h-1v-1zm-231,1h1v1l-2,2h-1v-1zm102,2h1v2h-1zm-143,4h1v1l-1,1h-1v-1z"/><path d="M359,182h1v1l-1,1h-1v-1zm117,1h2v1h-2zm-172,1h1v1l-1,1h-1v-1zm52,0h1v2h-1zm-61,2h1v7h-1zm-12,4h1v1l-1,1h-1v-1zm103,0h1v1l-1,2h-1v-2zm-33,8h2v2h-1l-1-1zm4,0h1v1l-1,1h-1v-1zm101,0h1v1l-2,2h-1v-1zm-173,2h1l1,1v1h-1l-1-1zm122,1h2v1h-2zm-76,2h2v1h-2zm152,4h2v1h-2zm-126,2h2v1l-1,1h-1zm-141,1h1v2h-1zm169,1h1v1l-1,1h-2v-1zm86,1h2v1h-2zm-242,21h2v1h-2z"/></g><g style="fill:rgb(188,172,60);fill-rule:evenodd;stroke:rgb(188,172,60);stroke-width:0.1;" id="l16"><path d="M73,18h1v1l-2,2h-1v-1zm202,41h1v1l-1,1h-1v-1z"/></g></svg>
